# xmcd
#
# Track frame offsets: 
#        150
#        12223
#        24603
#        39433
#        51549
#        63382
#        76646
#        89392
#        101371
#        115732
#        127586
#        139101
#        148358
#        157666
#        169769
#        181400
#        194349
#        205979
#        217600
#        228265
#        241695
#        254013
#
# Disc length: 3550 seconds
#
# Revision: 0
# Processed by: cddbd v1.5PL3 Copyright (c) Steve Scherf et al.
# Submitted via: ExactAudioCopy v0.95a4
#
DISCID=1e0ddc16
DTITLE=Various Artist - Bluegrass Beginnings
DYEAR=2001
DGENRE=Bluegrass
TTITLE0=Bill Monroe and His Bluegrass Boys - Bluegrass Breakdown
TTITLE1=Red Belcher - Kentucky Is Only A Dream
TTITLE2=The Stanley Brothers - The White Dove
TTITLE3=Flatt and Scruggs - Down the Road
TTITLE4=Phebel Wright - Lint Head Stomp
TTITLE5=Lonesome Pine Fiddlers - Lonesome Sad and Blue
TTITLE6=Bill Monroe and His Bluegrass Boys - Heavy Traffic Ahead
TTITLE7=The Stanley Brothers - I Love No One But You
TTITLE8=The Lilly Brothers - They Sleep Together Now At Rest
TTITLE9=Flatt and Scruggs - My Cabin In Caroline
TTITLE10=Bill Monroe and His Bluegrass Boys - Shine, Hallelujah, Shine
TTITLE11=Byron Parker and His Hillbillies - Gonna Lay Down My Old Guit
TTITLE11=ar
TTITLE12=The Bailey Brothers - Rattlesnake Daddy
TTITLE13=Flatt and Scruggs - Why Don't You Tell Me So?
TTITLE14=Jerry and Sky - Sparkling Brown Eyes
TTITLE15=Bill Monroe and His Bluegrass Boys - It's Mighty Dark to Trav
TTITLE15=el
TTITLE16=The Stanley Brothers - The Fields Have All Turned Brown
TTITLE17=The Lilly Brothers - What Are They Doing in Heaven Today?
TTITLE18=Lonesome Pine Fiddlers - Don't Foget Me
TTITLE19=Flatt and Scruggs - Baby Blue Eyes
TTITLE20=The Stanley Brothers - Hey! Hey! Hey!
TTITLE21=Jerry and Sky - Orange Blossom Special
EXTD=
EXTT0=
EXTT1=
EXTT2=
EXTT3=
EXTT4=
EXTT5=
EXTT6=
EXTT7=
EXTT8=
EXTT9=
EXTT10=
EXTT11=
EXTT12=
EXTT13=
EXTT14=
EXTT15=
EXTT16=
EXTT17=
EXTT18=
EXTT19=
EXTT20=
EXTT21=
PLAYORDER=
